ply
format ascii 1.0
comment Created by Blender 2.79 (sub 0) - www.blender.org, source file: 'untitled.blend'
element vertex 472
property float x
property float y
property float z
property float nx
property float ny
property float nz
property uchar red
property uchar green
property uchar blue
element face 162
property list uchar uint vertex_indices
end_header
0.777836 0.003439 -1.000230 -0.064935 0.997835 -0.010474 255 255 255
1.000020 0.020231 -0.777952 -0.064935 0.997835 -0.010474 255 255 255
1.000062 0.017891 -1.001142 -0.064935 0.997835 -0.010474 255 255 255
0.555556 0.000000 -1.000000 -0.013366 0.893958 0.447951 255 255 255
0.772630 -0.107644 -0.778703 -0.013366 0.893958 0.447951 255 255 255
0.777836 0.003439 -1.000230 -0.013366 0.893958 0.447951 255 255 255
0.333333 0.000000 -1.000000 0.000000 0.913554 0.406718 255 255 255
0.544885 -0.103872 -0.766688 0.000000 0.913554 0.406718 255 255 255
0.555556 0.000000 -1.000000 0.000000 0.913554 0.406718 255 255 255
0.111141 0.000012 -0.999439 -0.000415 0.982693 -0.185240 255 255 255
0.340221 0.041035 -0.782325 -0.000415 0.982693 -0.185240 255 255 255
0.333333 0.000000 -1.000000 -0.000415 0.982693 -0.185240 255 255 255
-0.111142 0.000012 -0.999439 0.000000 0.954395 -0.298545 255 255 255
0.097087 0.073810 -0.763519 0.000000 0.954395 -0.298545 255 255 255
0.111141 0.000012 -0.999439 0.000000 0.954395 -0.298545 255 255 255
-0.333333 0.000000 -1.000000 0.000703 0.954383 -0.298583 255 255 255
-0.097087 0.073810 -0.763519 0.000703 0.954383 -0.298583 255 255 255
-0.111142 0.000012 -0.999439 0.000703 0.954383 -0.298583 255 255 255
-0.555556 0.000000 -1.000000 0.000000 0.982691 -0.185253 255 255 255
-0.340221 0.041035 -0.782325 0.000000 0.982691 -0.185253 255 255 255
-0.333333 0.000000 -1.000000 0.000000 0.982691 -0.185253 255 255 255
-0.777836 -0.101187 -1.000230 -0.412241 0.905807 -0.097832 255 255 255
-0.544885 0.030056 -0.766688 -0.412241 0.905807 -0.097832 255 255 255
-0.555556 0.000000 -1.000000 -0.412241 0.905807 -0.097832 255 255 255
-1.000062 0.017891 -1.001142 0.470194 0.876712 -0.101459 255 255 255
-0.772630 -0.078342 -0.778703 0.470194 0.876712 -0.101459 255 255 255
-0.777836 -0.101187 -1.000230 0.470194 0.876712 -0.101459 255 255 255
0.772630 -0.107644 -0.778703 -0.427191 0.756739 0.494827 255 255 255
1.000068 -0.125110 -0.555641 -0.427191 0.756739 0.494827 255 255 255
1.000020 0.020231 -0.777952 -0.427191 0.756739 0.494827 255 255 255
0.544885 -0.103872 -0.766688 0.012412 0.996898 -0.077720 255 255 255
0.773365 -0.090663 -0.560777 0.012412 0.996898 -0.077720 255 255 255
0.772630 -0.107644 -0.778703 0.012412 0.996898 -0.077720 255 255 255
0.340221 0.041035 -0.782325 0.546979 0.727928 -0.413443 255 255 255
0.546371 0.017190 -0.551573 0.546979 0.727928 -0.413443 255 255 255
0.544885 -0.103872 -0.766688 0.546979 0.727928 -0.413443 255 255 255
0.097087 0.073810 -0.763519 0.110617 0.962568 -0.247442 255 255 255
0.255433 0.128754 -0.478996 0.110617 0.962568 -0.247442 255 255 255
0.340221 0.041035 -0.782325 0.110617 0.962568 -0.247442 255 255 255
-0.097087 0.073810 -0.763519 -0.000000 0.987756 0.156003 255 255 255
0.103644 0.041852 -0.561169 -0.000000 0.987756 0.156003 255 255 255
0.097087 0.073810 -0.763519 -0.000000 0.987756 0.156003 255 255 255
-0.340221 0.041035 -0.782325 -0.150938 0.750596 0.643291 255 255 255
-0.103644 -0.100931 -0.561169 -0.150938 0.750596 0.643291 255 255 255
-0.097087 0.073810 -0.763519 -0.150938 0.750596 0.643291 255 255 255
-0.544885 0.030056 -0.766688 -0.038217 0.981269 0.188814 255 255 255
-0.255433 -0.014028 -0.478996 -0.038217 0.981269 0.188814 255 255 255
-0.340221 0.041035 -0.782325 -0.038217 0.981269 0.188814 255 255 255
-0.772630 -0.078342 -0.778703 -0.431395 0.900727 0.050887 255 255 255
-0.546371 0.017190 -0.551573 -0.431395 0.900727 0.050887 255 255 255
-0.544885 0.030056 -0.766688 -0.431395 0.900727 0.050887 255 255 255
-1.000020 0.020231 -0.777952 0.394465 0.910884 -0.121194 255 255 255
-0.772378 -0.049253 -0.559255 0.394465 0.910884 -0.121194 255 255 255
-0.772630 -0.078342 -0.778703 0.394465 0.910884 -0.121194 255 255 255
0.773365 -0.090663 -0.560777 0.141992 0.861898 -0.486795 255 255 255
1.000000 0.000459 -0.333333 0.141992 0.861898 -0.486795 255 255 255
1.000068 -0.125110 -0.555641 0.141992 0.861898 -0.486795 255 255 255
0.546371 0.017190 -0.551573 0.368082 0.813160 -0.450872 255 255 255
0.771070 0.033393 -0.338912 0.368082 0.813160 -0.450872 255 255 255
0.773365 -0.090663 -0.560777 0.368082 0.813160 -0.450872 255 255 255
0.255433 0.128754 -0.478996 0.218856 0.864768 -0.451972 255 255 255
0.584237 0.172432 -0.236211 0.218856 0.864768 -0.451972 255 255 255
0.546371 0.017190 -0.551573 0.218856 0.864768 -0.451972 255 255 255
0.103644 0.041852 -0.561169 -0.605712 0.417462 0.677376 255 255 255
0.336065 0.009186 -0.333205 -0.605712 0.417462 0.677376 255 255 255
0.255433 0.128754 -0.478996 -0.605712 0.417462 0.677376 255 255 255
-0.103644 -0.100931 -0.561169 -0.400166 0.580950 -0.708777 255 255 255
0.111439 0.332682 -0.327190 -0.400166 0.580950 -0.708777 255 255 255
0.103644 0.041852 -0.561169 -0.400166 0.580950 -0.708777 255 255 255
-0.255433 -0.014028 -0.478996 0.188070 0.827996 -0.528254 255 255 255
-0.111439 0.050116 -0.327190 0.188070 0.827996 -0.528254 255 255 255
-0.103644 -0.100931 -0.561169 0.188070 0.827996 -0.528254 255 255 255
-0.546371 0.017190 -0.551573 0.127652 0.988021 -0.086720 255 255 255
-0.336065 0.009186 -0.333204 0.127652 0.988021 -0.086720 242 255 243
-0.255433 -0.014028 -0.478996 0.127652 0.988021 -0.086720 255 255 255
-0.772378 -0.049253 -0.559255 -0.280638 0.924944 0.256362 255 255 255
-0.584237 -0.081706 -0.236211 -0.280638 0.924944 0.256362 255 255 255
-0.546371 0.017190 -0.551573 -0.280638 0.924944 0.256362 255 255 255
-1.000068 0.008817 -0.555641 0.219962 0.887640 -0.404613 255 255 255
-0.769609 0.051208 -0.337357 0.219962 0.887640 -0.404613 255 255 255
-0.772378 -0.049253 -0.559255 0.219962 0.887640 -0.404613 255 255 255
0.771070 0.033393 -0.338912 0.143910 0.985923 -0.085119 255 255 255
1.000100 0.019629 -0.111125 0.143910 0.985923 -0.085119 255 255 255
1.000000 0.000459 -0.333333 0.143910 0.985923 -0.085119 255 255 255
0.584237 0.172432 -0.236211 0.576257 0.815378 -0.055553 255 255 255
0.777663 0.044361 -0.109538 0.576257 0.815378 -0.055553 255 255 255
0.771070 0.033393 -0.338912 0.576257 0.815378 -0.055553 255 255 255
0.336065 0.009186 -0.333205 -0.598484 0.760925 0.250619 255 255 255
0.554088 0.102334 -0.095375 -0.598484 0.760925 0.250619 255 255 255
0.584237 0.172432 -0.236211 -0.598484 0.760925 0.250619 255 255 255
0.111439 0.332682 -0.327190 0.821373 0.570386 -0.002590 255 255 255
0.339611 0.005074 -0.114079 0.821373 0.570386 -0.002590 255 255 255
0.336065 0.009186 -0.333205 0.821373 0.570386 -0.002590 255 255 255
-0.111439 0.050116 -0.327190 -0.777994 0.613651 0.134752 255 255 255
0.109300 0.282723 -0.112025 -0.777994 0.613651 0.134752 255 255 255
0.111439 0.332682 -0.327190 -0.777994 0.613651 0.134752 255 255 255
-0.336065 0.009186 -0.333204 -0.103622 0.675904 -0.729668 242 255 243
-0.109300 0.282723 -0.112026 -0.103622 0.675904 -0.729668 255 255 255
-0.111439 0.050116 -0.327190 -0.103622 0.675904 -0.729668 255 255 255
-0.584237 -0.081706 -0.236211 -0.339690 0.940459 0.012148 255 255 255
-0.339611 0.005074 -0.114079 -0.339690 0.940459 0.012148 253 255 253
-0.336065 0.009186 -0.333204 -0.339690 0.940459 0.012148 242 255 243
-0.769609 0.051208 -0.337357 0.642273 0.396669 -0.655849 255 255 255
-0.554088 0.102334 -0.095375 0.642273 0.396669 -0.655849 26 255 31
-0.584237 -0.081706 -0.236211 0.642273 0.396669 -0.655849 255 255 255
-1.000000 0.000459 -0.333333 -0.214884 0.976555 0.012876 255 255 255
-0.775875 0.046833 -0.110135 -0.214884 0.976555 0.012876 139 255 141
-0.769609 0.051208 -0.337357 -0.214884 0.976555 0.012876 255 255 255
0.777663 0.044361 -0.109538 0.110699 0.989996 0.087490 255 255 255
1.000000 0.000000 0.111111 0.110699 0.989996 0.087490 255 255 255
1.000100 0.019629 -0.111125 0.110699 0.989996 0.087490 255 255 255
0.554088 0.102334 -0.095375 0.227913 0.940514 -0.251972 255 255 255
0.797106 0.084624 0.058335 0.227913 0.940514 -0.251972 255 255 255
0.777663 0.044361 -0.109538 0.227913 0.940514 -0.251972 255 255 255
0.339611 0.005074 -0.114079 -0.418427 0.878047 0.232279 255 255 255
0.553756 0.046645 0.114537 -0.418427 0.878047 0.232279 255 255 255
0.554088 0.102334 -0.095375 -0.418427 0.878047 0.232279 255 255 255
0.109300 0.282723 -0.112025 0.769370 0.637952 0.032973 255 255 255
0.331369 0.003359 0.111436 0.769370 0.637952 0.032973 255 255 255
0.339611 0.005074 -0.114079 0.769370 0.637952 0.032973 255 255 255
-0.109300 0.282723 -0.112026 -0.000000 0.716690 0.697392 255 255 255
0.037427 0.101882 0.073820 -0.000000 0.716690 0.697392 255 255 255
0.109300 0.282723 -0.112025 -0.000000 0.716690 0.697392 255 255 255
-0.339611 0.005074 -0.114079 -0.570982 0.468647 0.674054 253 255 253
-0.037632 0.102612 0.073909 -0.570982 0.468647 0.674054 255 255 255
-0.109300 0.282723 -0.112026 -0.570982 0.468647 0.674054 255 255 255
-0.554088 0.102334 -0.095375 0.412392 0.910970 -0.008144 26 255 31
-0.331369 0.003359 0.111436 0.412392 0.910970 -0.008144 255 255 255
-0.339611 0.005074 -0.114079 0.412392 0.910970 -0.008144 253 255 253
-0.775875 0.046833 -0.110135 -0.250674 0.936155 0.246528 139 255 141
-0.553593 0.047250 0.114301 -0.250674 0.936155 0.246528 255 255 255
-0.554088 0.102334 -0.095375 -0.250674 0.936155 0.246528 26 255 31
-1.000100 -0.111729 -0.111125 -0.494412 0.695904 0.520840 255 255 255
-0.796948 -0.093676 0.057597 -0.494412 0.695904 0.520840 26 255 31
-0.775875 0.046833 -0.110135 -0.494412 0.695904 0.520840 139 255 141
0.797106 0.084624 0.058335 0.384944 0.922940 -0.000000 255 255 255
1.000000 0.000000 0.333333 0.384944 0.922940 -0.000000 255 255 255
1.000000 0.000000 0.111111 0.384944 0.922940 -0.000000 255 255 255
0.553756 0.046645 0.114537 -0.108290 0.975705 0.190453 255 255 255
0.775294 0.028563 0.333138 -0.108290 0.975705 0.190453 255 255 255
0.797106 0.084624 0.058335 -0.108290 0.975705 0.190453 255 255 255
0.331369 0.003359 0.111436 -0.133650 0.734319 -0.665517 255 255 255
0.547992 0.239982 0.329020 -0.133650 0.734319 -0.665517 177 255 178
0.553756 0.046645 0.114537 -0.133650 0.734319 -0.665517 255 255 255
0.037427 0.101882 0.073820 0.314640 0.689738 -0.652123 255 255 255
0.334434 0.214178 0.335895 0.314640 0.689738 -0.652123 26 255 31
0.331369 0.003359 0.111436 0.314640 0.689738 -0.652123 255 255 255
-0.037632 0.102612 0.073909 0.009590 0.946965 0.321193 255 255 255
0.110160 0.012540 0.335054 0.009590 0.946965 0.321193 26 255 31
0.037427 0.101882 0.073820 0.009590 0.946965 0.321193 255 255 255
-0.331369 0.003359 0.111436 -0.283331 0.928810 0.238821 255 255 255
-0.110277 0.013254 0.335248 -0.283331 0.928810 0.238821 26 255 31
-0.037632 0.102612 0.073909 -0.283331 0.928810 0.238821 255 255 255
-0.553593 0.047250 0.114301 0.167142 0.809512 0.562809 255 255 255
-0.334402 -0.152063 0.335887 0.167142 0.809512 0.562809 154 255 156
-0.331369 0.003359 0.111436 0.167142 0.809512 0.562809 255 255 255
-0.796948 -0.093676 0.057597 -0.517173 0.688487 0.508446 26 255 31
-0.547044 -0.105767 0.328164 -0.517173 0.688487 0.508446 52 255 56
-0.553593 0.047250 0.114301 -0.517173 0.688487 0.508446 255 255 255
-1.000000 0.000000 0.111111 0.306923 0.876779 -0.370213 255 255 255
-0.776389 0.015479 0.333154 0.306923 0.876779 -0.370213 30 255 35
-0.796948 -0.093676 0.057597 0.306923 0.876779 -0.370213 26 255 31
0.775294 0.028563 0.333138 0.126098 0.992018 -0.000000 255 255 255
1.000000 0.000000 0.555556 0.126098 0.992018 -0.000000 255 255 255
1.000000 0.000000 0.333333 0.126098 0.992018 -0.000000 255 255 255
0.547992 0.239982 0.329020 0.678972 0.728156 -0.093731 177 255 178
0.704887 0.128885 0.602473 0.678972 0.728156 -0.093731 47 255 52
0.775294 0.028563 0.333138 0.678972 0.728156 -0.093731 255 255 255
0.334434 0.214178 0.335895 -0.061691 0.700104 0.711371 26 255 31
0.554589 0.010710 0.555232 -0.061691 0.700104 0.711371 26 255 31
0.547992 0.239982 0.329020 -0.061691 0.700104 0.711371 177 255 178
0.110160 0.012540 0.335054 -0.549199 0.608465 0.572845 26 255 31
0.331642 0.008915 0.551244 -0.549199 0.608465 0.572845 26 255 31
0.334434 0.214178 0.335895 -0.549199 0.608465 0.572845 26 255 31
-0.110277 0.013254 0.335248 0.003223 0.999782 -0.020607 26 255 31
0.112139 0.016926 0.548194 0.003223 0.999782 -0.020607 26 255 31
0.110160 0.012540 0.335054 0.003223 0.999782 -0.020607 26 255 31
-0.334402 -0.152063 0.335887 -0.593438 0.804436 -0.026743 154 255 156
-0.112002 0.019097 0.549270 -0.593438 0.804436 -0.026743 26 255 31
-0.110277 0.013254 0.335248 -0.593438 0.804436 -0.026743 26 255 31
-0.547044 -0.105767 0.328164 0.213990 0.936584 -0.277524 52 255 56
-0.331041 -0.088535 0.552872 0.213990 0.936584 -0.277524 26 255 31
-0.334402 -0.152063 0.335887 0.213990 0.936584 -0.277524 154 255 156
-0.776389 0.015479 0.333154 0.418770 0.809101 -0.412296 30 255 35
-0.554342 0.013855 0.555501 0.418770 0.809101 -0.412296 38 255 43
-0.547044 -0.105767 0.328164 0.418770 0.809101 -0.412296 52 255 56
-1.000000 0.000000 0.333333 -0.065200 0.937927 -0.340649 255 255 255
-0.706807 0.117862 0.601733 -0.065200 0.937927 -0.340649 255 255 255
-0.776389 0.015479 0.333154 -0.065200 0.937927 -0.340649 30 255 35
0.704887 0.128885 0.602473 0.400226 0.916416 -0.000000 47 255 52
1.000000 0.000000 0.777778 0.400226 0.916416 -0.000000 255 255 255
1.000000 0.000000 0.555556 0.400226 0.916416 -0.000000 255 255 255
0.554589 0.010710 0.555232 -0.595481 0.508827 0.621689 26 255 31
0.777778 0.000000 0.777778 -0.595481 0.508827 0.621689 255 255 255
0.704887 0.128885 0.602473 -0.595481 0.508827 0.621689 47 255 52
0.331642 0.008915 0.551244 -0.008622 0.999444 0.032198 26 255 31
0.555232 0.003561 0.777338 -0.008622 0.999444 0.032198 255 255 255
0.554589 0.010710 0.555232 -0.008622 0.999444 0.032198 26 255 31
0.112139 0.016926 0.548194 0.035980 0.998777 0.033920 26 255 31
0.333073 0.001183 0.777421 0.035980 0.998777 0.033920 255 255 255
0.331642 0.008915 0.551244 0.035980 0.998777 0.033920 26 255 31
-0.112002 0.019097 0.549270 0.006882 0.913012 -0.407875 26 255 31
0.040642 0.112601 0.761150 0.006882 0.913012 -0.407875 255 255 255
0.112139 0.016926 0.548194 0.006882 0.913012 -0.407875 26 255 31
-0.331041 -0.088535 0.552872 -0.431432 0.870011 -0.238635 26 255 31
-0.040642 0.112601 0.761150 -0.431432 0.870011 -0.238635 255 255 255
-0.112002 0.019097 0.549270 -0.431432 0.870011 -0.238635 26 255 31
-0.554342 0.013855 0.555501 0.388855 0.856746 -0.338788 38 255 43
-0.333073 0.001182 0.777421 0.388855 0.856746 -0.338788 255 255 255
-0.331041 -0.088535 0.552872 0.388855 0.856746 -0.338788 26 255 31
-0.706807 0.117862 0.601733 0.571311 0.819764 0.039888 255 255 255
-0.555221 0.003666 0.777502 0.571311 0.819764 0.039888 255 255 255
-0.554342 0.013855 0.555501 0.571311 0.819764 0.039888 38 255 43
-1.000000 0.000000 0.555556 -0.395520 0.828932 0.395520 255 255 255
-0.777778 0.000000 0.777778 -0.395520 0.828932 0.395520 255 255 255
-0.706807 0.117862 0.601733 -0.395520 0.828932 0.395520 255 255 255
0.777778 0.000000 0.777778 0.000000 1.000000 -0.000000 255 255 255
1.000000 0.000000 1.000000 0.000000 1.000000 -0.000000 255 255 255
1.000000 0.000000 0.777778 0.000000 1.000000 -0.000000 255 255 255
0.555232 0.003561 0.777338 0.015997 0.999872 -0.000000 255 255 255
0.777778 0.000000 1.000000 0.015997 0.999872 -0.000000 255 255 255
0.777778 0.000000 0.777778 0.015997 0.999872 -0.000000 255 255 255
0.333073 0.001183 0.777421 -0.010697 0.999815 0.016004 255 255 255
0.555556 0.000000 1.000000 -0.010697 0.999815 0.016004 255 255 255
0.555232 0.003561 0.777338 -0.010697 0.999815 0.016004 255 255 255
0.040642 0.112601 0.761150 0.355814 0.934546 0.004549 255 255 255
0.333333 0.000000 1.000000 0.355814 0.934546 0.004549 255 255 255
0.333073 0.001183 0.777421 0.355814 0.934546 0.004549 255 255 255
-0.040642 0.112601 0.761150 -0.000000 0.904526 0.426419 255 255 255
0.111111 0.000000 1.000000 -0.000000 0.904526 0.426419 255 255 255
0.040642 0.112601 0.761150 -0.000000 0.904526 0.426419 255 255 255
-0.333073 0.001182 0.777421 -0.320910 0.889695 0.324747 255 255 255
-0.111111 0.000000 1.000000 -0.320910 0.889695 0.324747 255 255 255
-0.040642 0.112601 0.761150 -0.320910 0.889695 0.324747 255 255 255
-0.555221 0.003666 0.777502 0.011178 0.999923 0.005325 255 255 255
-0.333333 0.000000 1.000000 0.011178 0.999923 0.005325 255 255 255
-0.333073 0.001182 0.777421 0.011178 0.999923 0.005325 255 255 255
-0.777778 0.000000 0.777778 -0.016445 0.999729 0.016445 255 255 255
-0.555556 0.000000 1.000000 -0.016445 0.999729 0.016445 255 255 255
-0.555221 0.003666 0.777502 -0.016445 0.999729 0.016445 255 255 255
-1.000000 0.000000 0.777778 0.000000 1.000000 -0.000000 255 255 255
-0.777778 0.000000 1.000000 0.000000 1.000000 -0.000000 255 255 255
-0.777778 0.000000 0.777778 0.000000 1.000000 -0.000000 255 255 255
0.777836 0.003439 -1.000230 -0.452060 0.801570 0.391314 255 255 255
0.772630 -0.107644 -0.778703 -0.452060 0.801570 0.391314 255 255 255
1.000020 0.020231 -0.777952 -0.452060 0.801570 0.391314 255 255 255
0.555556 0.000000 -1.000000 0.036627 0.912317 0.407842 255 255 255
0.544885 -0.103872 -0.766688 0.036627 0.912317 0.407842 255 255 255
0.772630 -0.107644 -0.778703 0.036627 0.912317 0.407842 255 255 255
0.333333 0.000000 -1.000000 0.578116 0.798307 -0.168785 255 255 255
0.340221 0.041035 -0.782325 0.578116 0.798307 -0.168785 255 255 255
0.544885 -0.103872 -0.766688 0.578116 0.798307 -0.168785 255 255 255
0.111141 0.000012 -0.999439 0.105655 0.950830 -0.291135 255 255 255
0.097087 0.073810 -0.763519 0.105655 0.950830 -0.291135 255 255 255
0.340221 0.041035 -0.782325 0.105655 0.950830 -0.291135 255 255 255
-0.097087 0.073810 -0.763519 -0.000000 0.954395 -0.298545 255 255 255
-0.333333 0.000000 -1.000000 -0.116961 0.975266 -0.187554 255 255 255
-0.340221 0.041035 -0.782325 -0.116961 0.975266 -0.187554 255 255 255
-0.097087 0.073810 -0.763519 -0.116961 0.975266 -0.187554 255 255 255
-0.555556 0.000000 -1.000000 -0.062650 0.990215 -0.124695 255 255 255
-0.544885 0.030056 -0.766688 -0.062650 0.990215 -0.124695 255 255 255
-0.340221 0.041035 -0.782325 -0.062650 0.990215 -0.124695 255 255 255
-0.777836 -0.101187 -1.000230 -0.424709 0.901519 -0.082985 255 255 255
-0.772630 -0.078342 -0.778703 -0.424709 0.901519 -0.082985 255 255 255
-0.544885 0.030056 -0.766688 -0.424709 0.901519 -0.082985 255 255 255
-1.000062 0.017891 -1.001142 0.397688 0.917470 -0.009693 255 255 255
-1.000020 0.020231 -0.777952 0.397688 0.917470 -0.009693 255 255 255
-0.772630 -0.078342 -0.778703 0.397688 0.917470 -0.009693 255 255 255
0.772630 -0.107644 -0.778703 0.151485 0.985433 -0.077295 255 255 255
0.773365 -0.090663 -0.560777 0.151485 0.985433 -0.077295 255 255 255
1.000068 -0.125110 -0.555641 0.151485 0.985433 -0.077295 255 255 255
0.544885 -0.103872 -0.766688 0.366208 0.809849 -0.458297 255 255 255
0.546371 0.017190 -0.551573 0.366208 0.809849 -0.458297 255 255 255
0.773365 -0.090663 -0.560777 0.366208 0.809849 -0.458297 255 255 255
0.340221 0.041035 -0.782325 0.312032 0.932395 -0.182416 255 255 255
0.255433 0.128754 -0.478996 0.312032 0.932395 -0.182416 255 255 255
0.546371 0.017190 -0.551573 0.312032 0.932395 -0.182416 255 255 255
0.097087 0.073810 -0.763519 -0.550389 0.821754 0.147619 255 255 255
0.103644 0.041852 -0.561169 -0.550389 0.821754 0.147619 255 255 255
0.255433 0.128754 -0.478996 -0.550389 0.821754 0.147619 255 255 255
-0.097087 0.073810 -0.763519 -0.466295 0.676953 0.569478 255 255 255
-0.103644 -0.100931 -0.561169 -0.466295 0.676953 0.569478 255 255 255
0.103644 0.041852 -0.561169 -0.466295 0.676953 0.569478 255 255 255
-0.340221 0.041035 -0.782325 0.503352 0.863931 0.016131 255 255 255
-0.255433 -0.014028 -0.478996 0.503352 0.863931 0.016131 255 255 255
-0.103644 -0.100931 -0.561169 0.503352 0.863931 0.016131 255 255 255
-0.544885 0.030056 -0.766688 0.091671 0.993975 0.060079 255 255 255
-0.546371 0.017190 -0.551573 0.091671 0.993975 0.060079 255 255 255
-0.255433 -0.014028 -0.478996 0.091671 0.993975 0.060079 255 255 255
-0.772630 -0.078342 -0.778703 -0.275862 0.952904 -0.125995 255 255 255
-0.772378 -0.049253 -0.559255 -0.275862 0.952904 -0.125995 255 255 255
-0.546371 0.017190 -0.551573 -0.275862 0.952904 -0.125995 255 255 255
-1.000020 0.020231 -0.777952 0.247566 0.967594 0.049731 255 255 255
-1.000068 0.008817 -0.555641 0.247566 0.967594 0.049731 255 255 255
-0.772378 -0.049253 -0.559255 0.247566 0.967594 0.049731 255 255 255
0.773365 -0.090663 -0.560777 0.136236 0.865283 -0.482416 255 255 255
0.771070 0.033393 -0.338912 0.136236 0.865283 -0.482416 255 255 255
1.000000 0.000459 -0.333333 0.136236 0.865283 -0.482416 255 255 255
0.546371 0.017190 -0.551573 0.363343 0.817844 -0.446221 255 255 255
0.584237 0.172432 -0.236211 0.363343 0.817844 -0.446221 255 255 255
0.771070 0.033393 -0.338912 0.363343 0.817844 -0.446221 255 255 255
0.255433 0.128754 -0.478996 -0.567375 0.454582 0.686616 255 255 255
0.336065 0.009186 -0.333205 -0.567375 0.454582 0.686616 255 255 255
0.584237 0.172432 -0.236211 -0.567375 0.454582 0.686616 255 255 255
0.103644 0.041852 -0.561169 0.652586 0.464270 -0.598819 255 255 255
0.111439 0.332682 -0.327190 0.652586 0.464270 -0.598819 255 255 255
0.336065 0.009186 -0.333205 0.652586 0.464270 -0.598819 255 255 255
-0.103644 -0.100931 -0.561169 -0.722355 0.569765 -0.391882 255 255 255
-0.111439 0.050116 -0.327190 -0.722355 0.569765 -0.391882 255 255 255
0.111439 0.332682 -0.327190 -0.722355 0.569765 -0.391882 255 255 255
-0.255433 -0.014028 -0.478996 -0.167468 0.955030 -0.244688 255 255 255
-0.336065 0.009186 -0.333204 -0.167468 0.955030 -0.244688 242 255 243
-0.111439 0.050116 -0.327190 -0.167468 0.955030 -0.244688 255 255 255
-0.546371 0.017190 -0.551573 -0.238900 0.934375 0.264331 255 255 255
-0.584237 -0.081706 -0.236211 -0.238900 0.934375 0.264331 255 255 255
-0.336065 0.009186 -0.333204 -0.238900 0.934375 0.264331 242 255 243
-0.772378 -0.049253 -0.559255 0.660712 0.680689 -0.316419 255 255 255
-0.769609 0.051208 -0.337357 0.660712 0.680689 -0.316419 255 255 255
-0.584237 -0.081706 -0.236211 0.660712 0.680689 -0.316419 255 255 255
-1.000068 0.008817 -0.555641 -0.214359 0.976063 0.036762 255 255 255
-1.000000 0.000459 -0.333333 -0.214359 0.976063 0.036762 255 255 255
-0.769609 0.051208 -0.337357 -0.214359 0.976063 0.036762 255 255 255
0.771070 0.033393 -0.338912 0.110007 0.992641 -0.050626 255 255 255
0.777663 0.044361 -0.109538 0.110007 0.992641 -0.050626 255 255 255
1.000100 0.019629 -0.111125 0.110007 0.992641 -0.050626 255 255 255
0.584237 0.172432 -0.236211 0.249045 0.844711 0.473750 255 255 255
0.554088 0.102334 -0.095375 0.249045 0.844711 0.473750 255 255 255
0.777663 0.044361 -0.109538 0.249045 0.844711 0.473750 255 255 255
0.336065 0.009186 -0.333205 -0.414596 0.909695 0.023778 255 255 255
0.339611 0.005074 -0.114079 -0.414596 0.909695 0.023778 255 255 255
0.554088 0.102334 -0.095375 -0.414596 0.909695 0.023778 255 255 255
0.111439 0.332682 -0.327190 0.761060 0.630165 0.153881 255 255 255
0.109300 0.282723 -0.112025 0.761060 0.630165 0.153881 255 255 255
0.339611 0.005074 -0.114079 0.761060 0.630165 0.153881 255 255 255
-0.111439 0.050116 -0.327190 0.000000 0.679047 -0.734095 255 255 255
-0.109300 0.282723 -0.112026 0.000000 0.679047 -0.734095 255 255 255
0.109300 0.282723 -0.112025 0.000000 0.679047 -0.734095 255 255 255
-0.336065 0.009186 -0.333204 -0.769667 0.638446 -0.000476 242 255 243
-0.339611 0.005074 -0.114079 -0.769667 0.638446 -0.000476 253 255 253
-0.109300 0.282723 -0.112026 -0.769667 0.638446 -0.000476 255 255 255
-0.584237 -0.081706 -0.236211 0.192098 0.576361 -0.794296 255 255 255
-0.554088 0.102334 -0.095375 0.192098 0.576361 -0.794296 26 255 31
-0.339611 0.005074 -0.114079 0.192098 0.576361 -0.794296 253 255 253
-0.769609 0.051208 -0.337357 -0.243490 0.969830 0.011958 255 255 255
-0.775875 0.046833 -0.110135 -0.243490 0.969830 0.011958 139 255 141
-0.554088 0.102334 -0.095375 -0.243490 0.969830 0.011958 26 255 31
-1.000000 0.000459 -0.333333 -0.535052 0.754249 0.380562 255 255 255
-1.000100 -0.111729 -0.111125 -0.535052 0.754249 0.380562 255 255 255
-0.775875 0.046833 -0.110135 -0.535052 0.754249 0.380562 139 255 141
0.777663 0.044361 -0.109538 0.428240 0.866243 -0.257360 255 255 255
0.797106 0.084624 0.058335 0.428240 0.866243 -0.257360 255 255 255
1.000000 0.000000 0.111111 0.428240 0.866243 -0.257360 255 255 255
0.554088 0.102334 -0.095375 -0.091281 0.962565 0.255219 255 255 255
0.553756 0.046645 0.114537 -0.091281 0.962565 0.255219 255 255 255
0.797106 0.084624 0.058335 -0.091281 0.962565 0.255219 255 255 255
0.339611 0.005074 -0.114079 -0.191064 0.981577 0.000483 255 255 255
0.331369 0.003359 0.111436 -0.191064 0.981577 0.000483 255 255 255
0.553756 0.046645 0.114537 -0.191064 0.981577 0.000483 255 255 255
0.109300 0.282723 -0.112025 0.137072 0.682907 0.717530 255 255 255
0.037427 0.101882 0.073820 0.137072 0.682907 0.717530 255 255 255
0.331369 0.003359 0.111436 0.137072 0.682907 0.717530 255 255 255
-0.109300 0.282723 -0.112026 0.007827 0.719750 0.694189 255 255 255
-0.037632 0.102612 0.073909 0.007827 0.719750 0.694189 255 255 255
0.037427 0.101882 0.073820 0.007827 0.719750 0.694189 255 255 255
-0.339611 0.005074 -0.114079 -0.317900 0.947937 0.018830 253 255 253
-0.331369 0.003359 0.111436 -0.317900 0.947937 0.018830 255 255 255
-0.037632 0.102612 0.073909 -0.317900 0.947937 0.018830 255 255 255
-0.554088 0.102334 -0.095375 0.190752 0.949533 0.249000 26 255 31
-0.553593 0.047250 0.114301 0.190752 0.949533 0.249000 255 255 255
-0.331369 0.003359 0.111436 0.190752 0.949533 0.249000 255 255 255
-0.775875 0.046833 -0.110135 -0.516874 0.687090 0.510635 139 255 141
-0.796948 -0.093676 0.057597 -0.516874 0.687090 0.510635 26 255 31
-0.553593 0.047250 0.114301 -0.516874 0.687090 0.510635 255 255 255
-1.000100 -0.111729 -0.111125 0.281839 0.857173 -0.431070 255 255 255
-1.000000 0.000000 0.111111 0.281839 0.857173 -0.431070 255 255 255
-0.796948 -0.093676 0.057597 0.281839 0.857173 -0.431070 26 255 31
0.797106 0.084624 0.058335 0.123169 0.970398 0.207742 255 255 255
0.775294 0.028563 0.333138 0.123169 0.970398 0.207742 255 255 255
1.000000 0.000000 0.333333 0.123169 0.970398 0.207742 255 255 255
0.553756 0.046645 0.114537 0.579779 0.612879 -0.536876 255 255 255
0.547992 0.239982 0.329020 0.579779 0.612879 -0.536876 177 255 178
0.775294 0.028563 0.333138 0.579779 0.612879 -0.536876 255 255 255
0.331369 0.003359 0.111436 -0.109516 0.725268 -0.679700 255 255 255
0.334434 0.214178 0.335895 -0.109516 0.725268 -0.679700 26 255 31
0.547992 0.239982 0.329020 -0.109516 0.725268 -0.679700 177 255 178
0.037427 0.101882 0.073820 -0.612698 0.679800 0.403080 255 255 255
0.110160 0.012540 0.335054 -0.612698 0.679800 0.403080 26 255 31
0.334434 0.214178 0.335895 -0.612698 0.679800 0.403080 26 255 31
-0.037632 0.102612 0.073909 0.003353 0.945926 0.324365 255 255 255
-0.110277 0.013254 0.335248 0.003353 0.945926 0.324365 26 255 31
0.110160 0.012540 0.335054 0.003353 0.945926 0.324365 26 255 31
-0.331369 0.003359 0.111436 -0.519284 0.705867 0.481763 255 255 255
-0.334402 -0.152063 0.335887 -0.519284 0.705867 0.481763 154 255 156
-0.110277 0.013254 0.335248 -0.519284 0.705867 0.481763 26 255 31
-0.553593 0.047250 0.114301 0.154654 0.805719 0.571751 255 255 255
-0.547044 -0.105767 0.328164 0.154654 0.805719 0.571751 52 255 56
-0.334402 -0.152063 0.335887 0.154654 0.805719 0.571751 154 255 156
-0.796948 -0.093676 0.057597 0.429888 0.827982 -0.360058 26 255 31
-0.776389 0.015479 0.333154 0.429888 0.827982 -0.360058 30 255 35
-0.547044 -0.105767 0.328164 0.429888 0.827982 -0.360058 52 255 56
-1.000000 0.000000 0.111111 -0.069058 0.997613 0.000000 255 255 255
-1.000000 0.000000 0.333333 -0.069058 0.997613 0.000000 255 255 255
-0.776389 0.015479 0.333154 -0.069058 0.997613 0.000000 30 255 35
0.775294 0.028563 0.333138 0.355472 0.902484 -0.243232 255 255 255
0.704887 0.128885 0.602473 0.355472 0.902484 -0.243232 47 255 52
1.000000 0.000000 0.555556 0.355472 0.902484 -0.243232 255 255 255
0.547992 0.239982 0.329020 -0.610354 0.547376 0.572579 177 255 178
0.554589 0.010710 0.555232 -0.610354 0.547376 0.572579 26 255 31
0.704887 0.128885 0.602473 -0.610354 0.547376 0.572579 47 255 52
0.334434 0.214178 0.335895 -0.018167 0.723853 0.689715 26 255 31
0.331642 0.008915 0.551244 -0.018167 0.723853 0.689715 26 255 31
0.554589 0.010710 0.555232 -0.018167 0.723853 0.689715 26 255 31
0.110160 0.012540 0.335054 0.036754 0.999106 -0.020904 26 255 31
0.112139 0.016926 0.548194 0.036754 0.999106 -0.020904 26 255 31
0.331642 0.008915 0.551244 0.036754 0.999106 -0.020904 26 255 31
-0.110277 0.013254 0.335248 0.009548 0.999584 -0.027210 26 255 31
-0.112002 0.019097 0.549270 0.009548 0.999584 -0.027210 26 255 31
0.112139 0.016926 0.548194 0.009548 0.999584 -0.027210 26 255 31
-0.334402 -0.152063 0.335887 -0.430575 0.867971 -0.247450 154 255 156
-0.331041 -0.088535 0.552872 -0.430575 0.867971 -0.247450 26 255 31
-0.112002 0.019097 0.549270 -0.430575 0.867971 -0.247450 26 255 31
-0.547044 -0.105767 0.328164 0.373658 0.825753 -0.422506 52 255 56
-0.554342 0.013855 0.555501 0.373658 0.825753 -0.422506 38 255 43
-0.331041 -0.088535 0.552872 0.373658 0.825753 -0.422506 26 255 31
-0.776389 0.015479 0.333154 0.422819 0.804897 -0.416370 30 255 35
-0.706807 0.117862 0.601733 0.422819 0.804897 -0.416370 255 255 255
-0.554342 0.013855 0.555501 0.422819 0.804897 -0.416370 38 255 43
-1.000000 0.000000 0.333333 -0.372986 0.927837 0.000000 255 255 255
-1.000000 0.000000 0.555556 -0.372986 0.927837 0.000000 255 255 255
-0.706807 0.117862 0.601733 -0.372986 0.927837 0.000000 255 255 255
0.704887 0.128885 0.602473 0.000000 0.805686 0.592343 47 255 52
0.777778 0.000000 0.777778 0.000000 0.805686 0.592343 255 255 255
1.000000 0.000000 0.777778 0.000000 0.805686 0.592343 255 255 255
0.554589 0.010710 0.555232 0.015926 0.999357 0.032124 26 255 31
0.555232 0.003561 0.777338 0.015926 0.999357 0.032124 255 255 255
0.777778 0.000000 0.777778 0.015926 0.999357 0.032124 255 255 255
0.331642 0.008915 0.551244 -0.010685 0.999357 0.034235 26 255 31
0.333073 0.001183 0.777421 -0.010685 0.999357 0.034235 255 255 255
0.555232 0.003561 0.777338 -0.010685 0.999357 0.034235 255 255 255
0.112139 0.016926 0.548194 0.355295 0.891451 -0.281214 26 255 31
0.040642 0.112601 0.761150 0.355295 0.891451 -0.281214 255 255 255
0.333073 0.001183 0.777421 0.355295 0.891451 -0.281214 255 255 255
-0.112002 0.019097 0.549270 -0.000001 0.914874 -0.403739 26 255 31
-0.040642 0.112601 0.761150 -0.000001 0.914874 -0.403739 255 255 255
0.040642 0.112601 0.761150 -0.000001 0.914874 -0.403739 255 255 255
-0.331041 -0.088535 0.552872 -0.350443 0.868636 -0.350230 26 255 31
-0.333073 0.001182 0.777421 -0.350443 0.868636 -0.350230 255 255 255
-0.040642 0.112601 0.761150 -0.350443 0.868636 -0.350230 255 255 255
-0.554342 0.013855 0.555501 0.011182 0.998884 0.045893 38 255 43
-0.555221 0.003666 0.777502 0.011182 0.998884 0.045893 255 255 255
-0.333073 0.001182 0.777421 0.011182 0.998884 0.045893 255 255 255
-0.706807 0.117862 0.601733 -0.013041 0.833314 0.552646 255 255 255
-0.777778 0.000000 0.777778 -0.013041 0.833314 0.552646 255 255 255
-0.555221 0.003666 0.777502 -0.013041 0.833314 0.552646 255 255 255
-1.000000 0.000000 0.555556 0.000000 1.000000 0.000000 255 255 255
0.777778 0.000000 1.000000 0.000000 1.000000 0.000000 255 255 255
0.555232 0.003561 0.777338 0.000000 0.999872 0.015989 255 255 255
0.555556 0.000000 1.000000 0.000000 0.999872 0.015989 255 255 255
0.777778 0.000000 1.000000 0.000000 0.999872 0.015989 255 255 255
0.333073 0.001183 0.777421 0.000000 0.999986 0.005313 255 255 255
0.333333 0.000000 1.000000 0.000000 0.999986 0.005313 255 255 255
0.555556 0.000000 1.000000 0.000000 0.999986 0.005313 255 255 255
0.333333 0.000000 1.000000 0.000000 0.904526 0.426419 255 255 255
-0.111111 0.000000 1.000000 0.000000 0.904526 0.426419 255 255 255
-0.333073 0.001182 0.777421 0.000000 0.999986 0.005313 255 255 255
-0.333333 0.000000 1.000000 0.000000 0.999986 0.005313 255 255 255
-0.111111 0.000000 1.000000 0.000000 0.999986 0.005313 255 255 255
-0.555221 0.003666 0.777502 0.000000 0.999864 0.016472 255 255 255
-0.555556 0.000000 1.000000 0.000000 0.999864 0.016472 255 255 255
-0.333333 0.000000 1.000000 0.000000 0.999864 0.016472 255 255 255
-0.555556 0.000000 1.000000 0.000000 1.000000 0.000000 255 255 255
-1.000000 0.000000 1.000000 0.000000 1.000000 0.000000 255 255 255
3 0 1 2
3 3 4 5
3 6 7 8
3 9 10 11
3 12 13 14
3 15 16 17
3 18 19 20
3 21 22 23
3 24 25 26
3 27 28 29
3 30 31 32
3 33 34 35
3 36 37 38
3 39 40 41
3 42 43 44
3 45 46 47
3 48 49 50
3 51 52 53
3 54 55 56
3 57 58 59
3 60 61 62
3 63 64 65
3 66 67 68
3 69 70 71
3 72 73 74
3 75 76 77
3 78 79 80
3 81 82 83
3 84 85 86
3 87 88 89
3 90 91 92
3 93 94 95
3 96 97 98
3 99 100 101
3 102 103 104
3 105 106 107
3 108 109 110
3 111 112 113
3 114 115 116
3 117 118 119
3 120 121 122
3 123 124 125
3 126 127 128
3 129 130 131
3 132 133 134
3 135 136 137
3 138 139 140
3 141 142 143
3 144 145 146
3 147 148 149
3 150 151 152
3 153 154 155
3 156 157 158
3 159 160 161
3 162 163 164
3 165 166 167
3 168 169 170
3 171 172 173
3 174 175 176
3 177 178 179
3 180 181 182
3 183 184 185
3 186 187 188
3 189 190 191
3 192 193 194
3 195 196 197
3 198 199 200
3 201 202 203
3 204 205 206
3 207 208 209
3 210 211 212
3 213 214 215
3 216 217 218
3 219 220 221
3 222 223 224
3 225 226 227
3 228 229 230
3 231 232 233
3 234 235 236
3 237 238 239
3 240 241 242
3 243 244 245
3 246 247 248
3 249 250 251
3 252 253 254
3 12 255 13
3 256 257 258
3 259 260 261
3 262 263 264
3 265 266 267
3 268 269 270
3 271 272 273
3 274 275 276
3 277 278 279
3 280 281 282
3 283 284 285
3 286 287 288
3 289 290 291
3 292 293 294
3 295 296 297
3 298 299 300
3 301 302 303
3 304 305 306
3 307 308 309
3 310 311 312
3 313 314 315
3 316 317 318
3 319 320 321
3 322 323 324
3 325 326 327
3 328 329 330
3 331 332 333
3 334 335 336
3 337 338 339
3 340 341 342
3 343 344 345
3 346 347 348
3 349 350 351
3 352 353 354
3 355 356 357
3 358 359 360
3 361 362 363
3 364 365 366
3 367 368 369
3 370 371 372
3 373 374 375
3 376 377 378
3 379 380 381
3 382 383 384
3 385 386 387
3 388 389 390
3 391 392 393
3 394 395 396
3 397 398 399
3 400 401 402
3 403 404 405
3 406 407 408
3 409 410 411
3 412 413 414
3 415 416 417
3 418 419 420
3 421 422 423
3 424 425 426
3 427 428 429
3 430 431 432
3 433 434 435
3 436 437 438
3 439 440 441
3 442 443 444
3 445 446 447
3 448 449 450
3 451 452 453
3 454 240 242
3 216 455 217
3 456 457 458
3 459 460 461
3 230 229 462
3 228 463 229
3 464 465 466
3 467 468 469
3 242 241 470
3 240 471 241
